Coordinates
version=1
nRows=26
nColumns=24
inDegrees=yes

Units are S.I. units (second, meters, Newtons, ...)
Angles are in degrees.

endheader
time	pelvis_tilt	pelvis_list	pelvis_rotation	pelvis_tx	pelvis_ty	pelvis_tz	hip_flexion_r	hip_adduction_r	hip_rotation_r	knee_angle_r	ankle_angle_r	subtalar_angle_r	mtp_angle_r	hip_flexion_l	hip_adduction_l	hip_rotation_l	knee_angle_l	ankle_angle_l	subtalar_angle_l	mtp_angle_l	lumbar_extension	lumbar_bending	lumbar_rotation
      4.39000000	     14.09975391	     -5.21596321	      4.93002835	     -0.50905943	      0.92067160	     -0.25402169	    -30.23851015	      8.55045855	      1.85629968	    -13.83171469	     23.17129062	      7.45629807	      0.00000000	      7.89889111	     -4.69997460	     10.46639518	     -4.23427221	     11.53413083	      1.16501259	      0.00000000	    -31.76493019	      6.16405074	      3.16603779
      4.39500000	     14.01442011	     -4.80193953	      4.86251643	     -0.50213930	      0.92045784	     -0.25454043	    -30.20144865	      8.08267569	      1.71917201	    -14.70764357	     22.89047060	      7.75170985	      0.00000000	      7.87618188	     -4.18136403	     10.54569283	     -4.68589110	     11.50132625	      1.01882966	      0.00000000	    -31.64600245	      5.67406588	      2.98566969
      4.40000000	     14.04734275	     -4.31086960	      4.91596181	     -0.49523407	      0.92036855	     -0.25537791	    -30.28909937	      7.57012185	      1.29390715	    -15.57645532	     22.57543345	      8.37629872	      0.00000000	      7.74259611	     -3.55069016	     10.79255613	     -5.22017195	     11.40917215	      0.72076994	      0.00000000	    -31.65873472	      5.20442605	      2.67729417
      4.40500000	     14.01077966	     -3.80976955	      4.90964028	     -0.48822912	      0.92028484	     -0.25606389	    -30.27700581	      7.03363818	      0.97428513	    -16.51175089	     22.18806113	      8.82046919	      0.00000000	      7.65713325	     -2.91774365	     10.93421206	     -5.78501274	     11.32852605	      0.51575173	      0.00000000	    -31.58298060	      4.67640267	      2.38409098
      4.41000000	     13.94352709	     -3.28480315	      4.88891011	     -0.48117341	      0.92021589	     -0.25674234	    -30.21440395	      6.46818611	      0.69221790	    -17.48556569	     21.75865738	      9.23912858	      0.00000000	      7.59987769	     -2.25450395	     11.05696674	     -6.40838981	     11.24213467	      0.35066299	      0.00000000	    -31.46966599	      4.11132002	      2.10131561
      4.41500000	     13.86220529	     -2.74757747	      4.86366177	     -0.47409634	      0.92015007	     -0.25737986	    -30.09604299	      5.88985897	      0.36650977	    -18.54554662	     21.30802898	      9.60224398	      0.00000000	      7.54054148	     -1.58070451	     11.17413228	     -7.04067638	     11.18147573	      0.21808937	      0.00000000	    -31.34001493	      3.51286982	      1.87342424
      4.42000000	     13.86698494	     -2.17886168	      4.96879742	     -0.46707427	      0.92016292	     -0.25837535	    -30.06502885	      5.30844962	     -0.19677175	    -19.59953741	     20.80310477	     10.27914491	      0.00000000	      7.41131355	     -0.83663723	     11.48471071	     -7.74022589	     11.05136901	     -0.07375661	      0.00000000	    -31.31291735	      2.99653371	      1.48237952
      4.42500000	     13.75327772	     -1.62667006	      4.91921857	     -0.45989728	      0.92016396	     -0.25898754	    -29.86532055	      4.69791927	     -0.49578968	    -20.74587342	     20.20067122	     10.59811556	      0.00000000	      7.35371766	     -0.14787540	     11.53944696	     -8.39377178	     10.95234289	     -0.14449159	      0.00000000	    -31.13803407	      2.37045672	      1.23402822
      4.43000000	     13.69965103	     -1.05688332	      4.97886153	     -0.45282291	      0.92017763	     -0.25994381	    -29.70301510	      4.07811104	     -1.04373117	    -21.93306097	     19.62709088	     11.24263136	      0.00000000	      7.25321392	      0.59790456	     11.79176194	     -9.10114952	     10.83356039	     -0.40472703	      0.00000000	    -31.04416625	      1.82616853	      0.88644788
      4.43500000	     13.58615067	     -0.48674399	      4.95153746	     -0.44561400	      0.92022260	     -0.26067374	    -29.45620255	      3.43542557	     -1.41586296	    -23.15464816	     18.93679535	     11.63017874	      0.00000000	      7.17870826	      1.31796831	     11.89339328	     -9.77795671	     10.70747478	     -0.49135425	      0.00000000	    -30.86685416	      1.20837912	      0.62321259
      4.44000000	     13.49871213	      0.06713511	      5.00861228	     -0.43849266	      0.92028304	     -0.26161817	    -29.19608174	      2.81447560	     -1.96343903	    -24.43925802	     18.20482299	     12.17740408	      0.00000000	      7.07181158	      2.04267976	     12.13858845	    -10.43906324	     10.54741962	     -0.70663150	      0.00000000	    -30.73098501	      0.66599311	      0.33113962
      4.44500000	     13.38287367	      0.61946682	      5.00660849	     -0.43130535	      0.92036334	     -0.26243655	    -28.87483998	      2.16913227	     -2.41874282	    -25.77038707	     17.41565337	     12.59433472	      0.00000000	      6.96713508	      2.74955807	     12.28660530	    -11.07000006	     10.41168219	     -0.83905843	      0.00000000	    -30.55534424	      0.08558927	      0.07837057
      4.45000000	     13.26064541	      1.16542353	      4.96927847	     -0.42410158	      0.92046526	     -0.26318520	    -28.50879966	      1.50942219	     -2.83364297	    -27.15364756	     16.58129232	     12.91243829	      0.00000000	      6.84518704	      3.43839818	     12.37866560	    -11.66247273	     10.29856373	     -0.93766782	      0.00000000	    -30.37105302	     -0.51084697	     -0.14363381
      4.45500000	     13.13728241	      1.69771485	      4.94474635	     -0.41691651	      0.92059130	     -0.26400454	    -28.10837347	      0.84684418	     -3.28354100	    -28.57498401	     15.69625840	     13.25813283	      0.00000000	      6.70806929	      4.11762738	     12.51656680	    -12.22279061	     10.16299392	     -1.08116497	      0.00000000	    -30.18625890	     -1.07786252	     -0.34660648
      4.46000000	     13.02026435	      2.21195855	      4.90592153	     -0.40971972	      0.92076916	     -0.26477255	    -27.68375158	      0.19454200	     -3.68163149	    -30.01904465	     14.73218284	     13.50168978	      0.00000000	      6.54269404	      4.76673633	     12.65094368	    -12.74245366	     10.03646960	     -1.18107691	      0.00000000	    -30.00402843	     -1.63657247	     -0.51742701
      4.46500000	     12.89815532	      2.71595451	      4.86082970	     -0.40256956	      0.92094221	     -0.26558019	    -27.21136597	     -0.47307791	     -4.10826978	    -31.51404156	     13.77475433	     13.71224075	      0.00000000	      6.36682620	      5.40783590	     12.78324675	    -13.22276079	      9.92805823	     -1.33676565	      0.00000000	    -29.82208338	     -2.17862054	     -0.68130506
      4.47000000	     12.77152675	      3.19617350	      4.81843575	     -0.39545963	      0.92112365	     -0.26639321	    -26.69417393	     -1.13116053	     -4.53979136	    -33.04572519	     12.79777255	     13.85433446	      0.00000000	      6.17959426	      6.02171961	     12.91557233	    -13.66005315	      9.83679085	     -1.52525713	      0.00000000	    -29.64174896	     -2.69550347	     -0.82644760
      4.47500000	     12.66140360	      3.66017761	      4.75476655	     -0.38833237	      0.92137666	     -0.26712437	    -26.16689028	     -1.77634087	     -4.89621441	    -34.57870881	     11.75226093	     13.85796534	      0.00000000	      5.94799330	      6.60237202	     13.05143288	    -14.04035303	      9.76228969	     -1.64613725	      0.00000000	    -29.47060066	     -3.21105571	     -0.93795582
      4.48000000	     12.53908137	      4.10856172	      4.66869077	     -0.38127977	      0.92161039	     -0.26791322	    -25.57934664	     -2.44569616	     -5.27042975	    -36.15657763	     10.76457946	     13.80685049	      0.00000000	      5.72053831	      7.17219936	     13.16122897	    -14.38771212	      9.71374980	     -1.84882615	      0.00000000	    -29.29455112	     -3.69846210	     -1.03174257
      4.48500000	     12.44181828	      4.52899172	      4.58026351	     -0.37422672	      0.92191596	     -0.26862256	    -24.99207439	     -3.07842738	     -5.58440019	    -37.72294893	      9.72490428	     13.62086858	      0.00000000	      5.44235449	      7.69663205	     13.29055046	    -14.67807673	      9.68805427	     -1.99006499	      0.00000000	    -29.14039313	     -4.17138216	     -1.09839582
      4.49000000	     12.33653269	      4.93566477	      4.47090521	     -0.36723364	      0.92221614	     -0.26931194	    -24.35458465	     -3.72125317	     -5.88874167	    -39.31370908	      8.75116289	     13.34435186	      0.00000000	      5.16076256	      8.20414316	     13.39145858	    -14.92748850	      9.68731439	     -2.19107687	      0.00000000	    -28.98486554	     -4.63522459	     -1.14683096
      4.49500000	     12.25963639	      5.31251693	      4.35285185	     -0.36025951	      0.92258059	     -0.27005064	    -23.72180299	     -4.34561408	     -6.16416454	    -40.88457323	      7.77210997	     12.95511798	      0.00000000	      4.83229344	      8.67718989	     13.50462321	    -15.13448798	      9.71527079	     -2.35127259	      0.00000000	    -28.84884042	     -5.04376483	     -1.17558310
      4.50000000	     12.11349715	      5.66109671	      4.17040593	     -0.35338114	      0.92286612	     -0.27070338	    -22.94870637	     -4.98462860	     -6.35914823	    -42.50543790	      6.92968877	     12.50288611	      0.00000000	      4.57883186	      9.12244875	     13.55383947	    -15.31046088	      9.74942296	     -2.64304367	      0.00000000	    -28.64646956	     -5.46517254	     -1.13019179
      4.50500000	     12.08395158	      5.99539519	      4.08122661	     -0.34647405	      0.92332794	     -0.27136502	    -22.32212686	     -5.54578948	     -6.61591127	    -44.03107671	      6.02239624	     11.87985077	      0.00000000	      4.16571632	      9.52953676	     13.67452342	    -15.42726851	      9.85440665	     -2.74673083	      0.00000000	    -28.57004801	     -5.82202414	     -1.16186665
      4.51000000	     11.94716299	      6.28330895	      3.83492628	     -0.33970778	      0.92367451	     -0.27190917	    -21.47817812	     -6.13823904	     -6.66312747	    -45.63260391	      5.31074210	     11.20045094	      0.00000000	      3.88029894	      9.89796829	     13.70095383	    -15.51506622	      9.92306729	     -3.04872677	      0.00000000	    -28.37603661	     -6.20304479	     -1.04563972
      4.51500000	     11.94520213	      6.58078693	      3.74849048	     -0.33290363	      0.92419071	     -0.27254157	    -20.83157149	     -6.65763854	     -6.88367206	    -47.11299104	      4.60107412	     10.37863743	      0.00000000	      3.41582959	     10.25771457	     13.83312596	    -15.56403951	     10.08345221	     -3.15435203	      0.00000000	    -28.33684266	     -6.51320011	     -1.09307030
